<svg width="320" height="407" viewBox="0 0 320 407" fill="none" xmlns="http://www.w3.org/2000/svg">
<g filter="url(#filter0_f_1_12)">
<path d="M153.855 53.1342C128.788 87.1678 124.442 133.614 146.554 171.914C168.666 210.213 211.063 229.672 253.07 224.981C244.138 237.108 232.576 247.659 218.642 255.704C165.604 286.325 98.2955 269.038 68.3042 217.091C38.3128 165.145 56.9957 98.2101 110.034 67.5887C123.967 59.544 138.886 54.8059 153.855 53.1342Z" fill="#FFEE94"/>
</g>
<g filter="url(#filter1_i_1_12)">
<path d="M151.517 67.4758C128.636 98.5427 124.668 140.941 144.853 175.902C165.038 210.863 203.739 228.626 242.085 224.343C233.931 235.413 223.377 245.045 210.657 252.388C162.243 280.34 100.801 264.56 73.4241 217.141C46.047 169.723 63.1014 108.623 111.516 80.6703C124.235 73.3268 137.854 69.0018 151.517 67.4758Z" fill="url(#paint0_linear_1_12)"/>
</g>
<g filter="url(#filter2_b_1_12)">
<g filter="url(#filter3_i_1_12)">
<path d="M241.639 222.843C242.178 219.783 242.459 216.635 242.459 213.422C242.459 183.366 217.866 159 187.529 159C164.976 159 145.598 172.466 137.138 191.726C130.285 185.863 121.392 182.324 111.674 182.324C90.0044 182.324 72.438 199.921 72.438 221.629C72.438 222.838 72.4925 224.034 72.5991 225.215C62.1766 230.273 55 240.886 55 253.159C55 270.335 69.0531 284.258 86.3884 284.258H234.612C251.947 284.258 266 270.335 266 253.159C266 238.378 255.591 226.005 241.639 222.843Z" fill="url(#paint1_linear_1_12)"/>
</g>
</g>
<g filter="url(#filter4_di_1_12)">
<path d="M111.782 250.388C99.3582 266.74 81.9651 299.443 111.782 299.443C141.599 299.443 124.206 266.74 111.782 250.388Z" fill="#00BCFF"/>
</g>
<g filter="url(#filter5_di_1_12)">
<path d="M208.546 250.388C196.122 266.74 178.729 299.443 208.546 299.443C238.363 299.443 220.97 266.74 208.546 250.388Z" fill="#00BCFF"/>
</g>
<g filter="url(#filter6_di_1_12)">
<path d="M162.18 318.258C149.756 334.609 132.363 367.312 162.18 367.312C191.997 367.312 174.604 334.609 162.18 318.258Z" fill="#00BCFF"/>
</g>
<g filter="url(#filter7_f_1_12)">
<rect x="79.863" y="288.019" width="161.274" height="23.5191" rx="11.7596" fill="#00BCFF"/>
</g>
<defs>
<filter id="filter0_f_1_12" x="0.994385" y="0.134216" width="305.076" height="323.713" filterUnits="userSpaceOnUse" color-interpolation-filters="sRGB">
<feFlood flood-opacity="0" result="BackgroundImageFix"/>
<feBlend mode="normal" in="SourceGraphic" in2="BackgroundImageFix" result="shape"/>
<feGaussianBlur stdDeviation="26.5" result="effect1_foregroundBlur_1_12"/>
</filter>
<filter id="filter1_i_1_12" x="60.3617" y="67.4758" width="181.723" height="202.735" filterUnits="userSpaceOnUse" color-interpolation-filters="sRGB">
<feFlood flood-opacity="0" result="BackgroundImageFix"/>
<feBlend mode="normal" in="SourceGraphic" in2="BackgroundImageFix" result="shape"/>
<feColorMatrix in="SourceAlpha" type="matrix" values="0 0 0 0 0 0 0 0 0 0 0 0 0 0 0 0 0 0 127 0" result="hardAlpha"/>
<feOffset dy="4"/>
<feGaussianBlur stdDeviation="4"/>
<feComposite in2="hardAlpha" operator="arithmetic" k2="-1" k3="1"/>
<feColorMatrix type="matrix" values="0 0 0 0 1 0 0 0 0 1 0 0 0 0 1 0 0 0 0.55 0"/>
<feBlend mode="normal" in2="shape" result="effect1_innerShadow_1_12"/>
</filter>
<filter id="filter2_b_1_12" x="28" y="132" width="265" height="179.258" filterUnits="userSpaceOnUse" color-interpolation-filters="sRGB">
<feFlood flood-opacity="0" result="BackgroundImageFix"/>
<feGaussianBlur in="BackgroundImageFix" stdDeviation="13.5"/>
<feComposite in2="SourceAlpha" operator="in" result="effect1_backgroundBlur_1_12"/>
<feBlend mode="normal" in="SourceGraphic" in2="effect1_backgroundBlur_1_12" result="shape"/>
</filter>
<filter id="filter3_i_1_12" x="55" y="159" width="211" height="135.258" filterUnits="userSpaceOnUse" color-interpolation-filters="sRGB">
<feFlood flood-opacity="0" result="BackgroundImageFix"/>
<feBlend mode="normal" in="SourceGraphic" in2="BackgroundImageFix" result="shape"/>
<feColorMatrix in="SourceAlpha" type="matrix" values="0 0 0 0 0 0 0 0 0 0 0 0 0 0 0 0 0 0 127 0" result="hardAlpha"/>
<feOffset dy="11"/>
<feGaussianBlur stdDeviation="5"/>
<feComposite in2="hardAlpha" operator="arithmetic" k2="-1" k3="1"/>
<feColorMatrix type="matrix" values="0 0 0 0 1 0 0 0 0 1 0 0 0 0 1 0 0 0 1 0"/>
<feBlend mode="normal" in2="shape" result="effect1_innerShadow_1_12"/>
</filter>
<filter id="filter4_di_1_12" x="76.3185" y="250.388" width="70.9268" height="88.0541" filterUnits="userSpaceOnUse" color-interpolation-filters="sRGB">
<feFlood flood-opacity="0" result="BackgroundImageFix"/>
<feColorMatrix in="SourceAlpha" type="matrix" values="0 0 0 0 0 0 0 0 0 0 0 0 0 0 0 0 0 0 127 0" result="hardAlpha"/>
<feOffset dy="20"/>
<feGaussianBlur stdDeviation="9.5"/>
<feComposite in2="hardAlpha" operator="out"/>
<feColorMatrix type="matrix" values="0 0 0 0 0.283785 0 0 0 0 0.178889 0 0 0 0 0.933333 0 0 0 1 0"/>
<feBlend mode="normal" in2="BackgroundImageFix" result="effect1_dropShadow_1_12"/>
<feBlend mode="normal" in="SourceGraphic" in2="effect1_dropShadow_1_12" result="shape"/>
<feColorMatrix in="SourceAlpha" type="matrix" values="0 0 0 0 0 0 0 0 0 0 0 0 0 0 0 0 0 0 127 0" result="hardAlpha"/>
<feOffset dy="9"/>
<feGaussianBlur stdDeviation="1.5"/>
<feComposite in2="hardAlpha" operator="arithmetic" k2="-1" k3="1"/>
<feColorMatrix type="matrix" values="0 0 0 0 1 0 0 0 0 1 0 0 0 0 1 0 0 0 0.21 0"/>
<feBlend mode="normal" in2="shape" result="effect2_innerShadow_1_12"/>
</filter>
<filter id="filter5_di_1_12" x="173.083" y="250.388" width="70.9268" height="88.0541" filterUnits="userSpaceOnUse" color-interpolation-filters="sRGB">
<feFlood flood-opacity="0" result="BackgroundImageFix"/>
<feColorMatrix in="SourceAlpha" type="matrix" values="0 0 0 0 0 0 0 0 0 0 0 0 0 0 0 0 0 0 127 0" result="hardAlpha"/>
<feOffset dy="20"/>
<feGaussianBlur stdDeviation="9.5"/>
<feComposite in2="hardAlpha" operator="out"/>
<feColorMatrix type="matrix" values="0 0 0 0 0.283785 0 0 0 0 0.178889 0 0 0 0 0.933333 0 0 0 1 0"/>
<feBlend mode="normal" in2="BackgroundImageFix" result="effect1_dropShadow_1_12"/>
<feBlend mode="normal" in="SourceGraphic" in2="effect1_dropShadow_1_12" result="shape"/>
<feColorMatrix in="SourceAlpha" type="matrix" values="0 0 0 0 0 0 0 0 0 0 0 0 0 0 0 0 0 0 127 0" result="hardAlpha"/>
<feOffset dy="9"/>
<feGaussianBlur stdDeviation="1.5"/>
<feComposite in2="hardAlpha" operator="arithmetic" k2="-1" k3="1"/>
<feColorMatrix type="matrix" values="0 0 0 0 1 0 0 0 0 1 0 0 0 0 1 0 0 0 0.21 0"/>
<feBlend mode="normal" in2="shape" result="effect2_innerShadow_1_12"/>
</filter>
<filter id="filter6_di_1_12" x="126.717" y="318.258" width="70.9268" height="88.0541" filterUnits="userSpaceOnUse" color-interpolation-filters="sRGB">
<feFlood flood-opacity="0" result="BackgroundImageFix"/>
<feColorMatrix in="SourceAlpha" type="matrix" values="0 0 0 0 0 0 0 0 0 0 0 0 0 0 0 0 0 0 127 0" result="hardAlpha"/>
<feOffset dy="20"/>
<feGaussianBlur stdDeviation="9.5"/>
<feComposite in2="hardAlpha" operator="out"/>
<feColorMatrix type="matrix" values="0 0 0 0 0.283785 0 0 0 0 0.178889 0 0 0 0 0.933333 0 0 0 1 0"/>
<feBlend mode="normal" in2="BackgroundImageFix" result="effect1_dropShadow_1_12"/>
<feBlend mode="normal" in="SourceGraphic" in2="effect1_dropShadow_1_12" result="shape"/>
<feColorMatrix in="SourceAlpha" type="matrix" values="0 0 0 0 0 0 0 0 0 0 0 0 0 0 0 0 0 0 127 0" result="hardAlpha"/>
<feOffset dy="9"/>
<feGaussianBlur stdDeviation="1.5"/>
<feComposite in2="hardAlpha" operator="arithmetic" k2="-1" k3="1"/>
<feColorMatrix type="matrix" values="0 0 0 0 1 0 0 0 0 1 0 0 0 0 1 0 0 0 0.21 0"/>
<feBlend mode="normal" in2="shape" result="effect2_innerShadow_1_12"/>
</filter>
<filter id="filter7_f_1_12" x="1.86304" y="210.019" width="317.274" height="179.519" filterUnits="userSpaceOnUse" color-interpolation-filters="sRGB">
<feFlood flood-opacity="0" result="BackgroundImageFix"/>
<feBlend mode="normal" in="SourceGraphic" in2="BackgroundImageFix" result="shape"/>
<feGaussianBlur stdDeviation="39" result="effect1_foregroundBlur_1_12"/>
</filter>
<linearGradient id="paint0_linear_1_12" x1="156.5" y1="51" x2="120.175" y2="270.951" gradientUnits="userSpaceOnUse">
<stop stop-color="#FFEE94"/>
<stop offset="1" stop-color="#FF9900"/>
</linearGradient>
<linearGradient id="paint1_linear_1_12" x1="68.4205" y1="273.074" x2="281.284" y2="113.892" gradientUnits="userSpaceOnUse">
<stop stop-color="white"/>
<stop offset="1" stop-color="white" stop-opacity="0.58"/>
</linearGradient>
</defs>
</svg>
