<svg width="201" height="260" viewBox="0 0 201 260" fill="none" xmlns="http://www.w3.org/2000/svg">
<path fill-rule="evenodd" clip-rule="evenodd" d="M84.8365 5.60173C82.4223 0.799229 76.6218 -1.26879 71.8999 1.29936C29.0702 24.5932 6.10352e-05 69.9875 6.10352e-05 122.171C6.10352e-05 198.111 61.5609 259.672 137.5 259.672C158.182 259.672 177.797 255.105 195.393 246.926C200.262 244.663 202.055 238.78 199.643 233.983L84.8365 5.60173Z" fill="#E5E5E5"/>
<ellipse cx="167.381" cy="217.444" rx="28.6269" ry="11.6844" transform="rotate(73.3884 167.381 217.444)" fill="#A9A9A9"/>
<ellipse cx="64.3808" cy="47.444" rx="28.6269" ry="11.6844" transform="rotate(73.3884 64.3808 47.444)" fill="#A9A9A9"/>
<ellipse cx="28.1146" cy="115.538" rx="28.6269" ry="11.6844" transform="rotate(46.7975 28.1146 115.538)" fill="#A9A9A9"/>
<ellipse cx="53.4466" cy="189.665" rx="20.819" ry="8.49756" transform="rotate(46.7975 53.4466 189.665)" fill="#A9A9A9"/>
<ellipse cx="111.447" cy="226.665" rx="20.819" ry="8.49756" transform="rotate(46.7975 111.447 226.665)" fill="#A9A9A9"/>
<ellipse cx="110.447" cy="147.665" rx="20.819" ry="8.49756" transform="rotate(46.7975 110.447 147.665)" fill="#A9A9A9"/>
</svg>
